<?xml version="1.0" encoding="UTF-8" standalone="no"?>
<!-- Created with Inkscape (http://www.inkscape.org/) -->
<svg
   xmlns:dc="http://purl.org/dc/elements/1.1/"
   xmlns:cc="http://creativecommons.org/ns#"
   xmlns:rdf="http://www.w3.org/1999/02/22-rdf-syntax-ns#"
   xmlns:svg="http://www.w3.org/2000/svg"
   xmlns="http://www.w3.org/2000/svg"
   xmlns:sodipodi="http://sodipodi.sourceforge.net/DTD/sodipodi-0.dtd"
   xmlns:inkscape="http://www.inkscape.org/namespaces/inkscape"
   width="502.19208"
   height="841.73431"
   id="svg6605"
   sodipodi:version="0.32"
   inkscape:version="0.45.1+0.46pre1+devel"
   version="1.0"
   sodipodi:docname="Castle (Outline).svg"
   inkscape:output_extension="org.inkscape.output.svg.inkscape">
  <defs
     id="defs6607">
    <inkscape:perspective
       sodipodi:type="inkscape:persp3d"
       inkscape:vp_x="-50 : 600 : 1"
       inkscape:vp_y="0 : 1000 : 0"
       inkscape:vp_z="700 : 600 : 1"
       inkscape:persp3d-origin="300 : 400 : 1"
       id="perspective6613" />
  </defs>
  <sodipodi:namedview
     id="base"
     pagecolor="#ffffff"
     bordercolor="#666666"
     borderopacity="1.0"
     gridtolerance="10000"
     guidetolerance="10"
     objecttolerance="10"
     inkscape:pageopacity="0.0"
     inkscape:pageshadow="2"
     inkscape:zoom="0.49497475"
     inkscape:cx="872.15656"
     inkscape:cy="503.5466"
     inkscape:document-units="px"
     inkscape:current-layer="layer1"
     showgrid="false"
     inkscape:window-width="1152"
     inkscape:window-height="838"
     inkscape:window-x="-4"
     inkscape:window-y="-4" />
  <metadata
     id="metadata6610">
    <rdf:RDF>
      <cc:Work
         rdf:about="">
        <dc:format>image/svg+xml</dc:format>
        <dc:type
           rdf:resource="http://purl.org/dc/dcmitype/StillImage" />
      </cc:Work>
    </rdf:RDF>
  </metadata>
  <g
     inkscape:label="Layer 1"
     inkscape:groupmode="layer"
     id="layer1"
     transform="translate(-28.903968,-2.9235941)">
    <g
       id="g6494"
       transform="translate(-787.14286,-19.296118)">
      <path
         id="path4863"
         d="M 867.50373,615.22722 L 868.9323,533.08436 C 868.9323,533.08436 858.57516,522.01294 859.28944,516.65579 C 860.00373,511.29865 861.78944,502.72722 864.28944,500.58436 C 866.78944,498.44151 864.64659,442.37008 864.64659,442.37008 L 834.28944,432.01294 C 834.28944,432.01294 838.9323,447.37008 838.9323,450.22722 C 838.9323,453.08436 840.00373,482.37008 840.00373,482.37008 C 840.00373,482.37008 830.00373,493.08436 830.71802,497.01294 C 831.4323,500.94151 836.78944,513.44151 840.00373,515.22722 C 843.21802,517.01294 846.4323,520.94151 846.07516,525.58436 C 845.71802,530.22722 846.07516,592.72722 846.07516,592.72722 L 868.21802,617.01294 L 867.50373,615.22722 z"
         style="fill:none;fill-rule:evenodd;stroke:#000000;stroke-width:1px;stroke-linecap:butt;stroke-linejoin:miter;stroke-opacity:1" />
      <path
         id="path4865"
         d="M 868.21802,616.29865 C 868.21802,616.29865 881.07516,627.37008 888.21802,625.22722 C 895.36087,623.08436 899.28944,615.58436 905.71802,615.58436 C 912.14659,615.58436 933.9323,619.15579 933.9323,615.22722 C 933.9323,611.29865 929.64659,446.29865 929.64659,446.29865 L 927.86087,432.72722 L 864.64659,442.01294 L 865.71802,499.51294 C 865.71802,499.51294 858.9323,509.15579 860.00373,517.37008 C 861.07516,525.58436 869.64659,533.44151 869.64659,533.44151 L 868.21802,616.29865 z"
         style="fill:none;fill-rule:evenodd;stroke:#000000;stroke-width:1px;stroke-linecap:butt;stroke-linejoin:miter;stroke-opacity:1" />
      <path
         id="path4867"
         d="M 876.78944,499.87008 L 875.00373,465.94151 C 875.00373,465.94151 882.50373,454.87008 892.86087,454.51294 C 903.21802,454.15579 909.64659,464.51294 909.64659,464.51294 L 912.14659,494.51294 L 876.78944,499.87008 z"
         style="fill:none;fill-rule:evenodd;stroke:#000000;stroke-width:1px;stroke-linecap:butt;stroke-linejoin:miter;stroke-opacity:1" />
      <path
         id="path4869"
         d="M 923.9323,420.58436 C 923.9323,420.58436 907.86087,373.44151 902.14659,361.29865 C 896.4323,349.15579 881.78944,304.87008 875.36087,304.87008 C 868.9323,304.87008 867.14659,314.15579 867.14659,314.15579 C 867.14659,314.15579 834.28944,415.58436 833.57516,419.87008 C 832.86087,424.15579 860.00373,436.29865 870.00373,433.79865 C 880.00373,431.29865 906.4323,429.87008 906.4323,429.87008 L 923.9323,420.58436 z"
         style="fill:none;fill-rule:evenodd;stroke:#000000;stroke-width:1px;stroke-linecap:butt;stroke-linejoin:miter;stroke-opacity:1" />
      <path
         id="path4871"
         d="M 958.9323,656.65579 L 934.64659,615.22722 L 928.21802,433.08436 L 967.50373,450.94151 L 962.50373,655.94151 L 958.9323,656.65579 z"
         style="fill:none;fill-rule:evenodd;stroke:#000000;stroke-width:1px;stroke-linecap:butt;stroke-linejoin:miter;stroke-opacity:1" />
      <path
         id="path4873"
         d="M 962.86087,655.22722 L 967.86087,450.94151 L 1015.718,448.79865 C 1015.718,448.79865 1026.7894,652.72722 1025.0037,652.72722 C 1023.218,652.72722 1017.1466,652.72722 1017.1466,652.72722 L 1014.2894,595.58436 C 1014.2894,595.58436 1006.0752,581.29865 995.00373,583.08436 C 983.9323,584.87008 979.28944,600.58436 979.28944,600.58436 L 980.00373,655.22722 L 962.86087,655.22722 z"
         style="fill:none;fill-rule:evenodd;stroke:#000000;stroke-width:1px;stroke-linecap:butt;stroke-linejoin:miter;stroke-opacity:1" />
      <path
         sodipodi:nodetypes="cccsscccscccccsscc"
         id="path4875"
         d="M 1022.8609,578.44151 L 1016.4323,449.15579 L 1049.6466,430.94151 C 1049.6466,430.94151 1062.1466,426.29865 1066.4323,426.65579 C 1070.718,427.01294 1077.1466,422.37008 1078.9323,426.65579 C 1080.718,430.94151 1088.5752,460.22722 1088.5752,460.22722 L 1084.2894,496.29865 L 1083.218,519.51294 C 1083.218,519.51294 1081.7894,529.15579 1083.218,530.58436 C 1084.6466,532.01294 1084.6466,538.44151 1084.6466,538.44151 L 1082.5037,544.15579 L 1083.5752,551.65579 L 1083.9323,559.51294 L 1084.2894,564.51293 C 1084.2894,564.51293 1073.5752,535.58436 1064.6466,539.51293 C 1055.718,543.44151 1038.9323,555.58436 1035.0037,559.51294 C 1031.7207,562.79593 1023.218,580.94151 1023.218,580.94151 L 1022.8609,578.44151 z"
         style="fill:none;fill-rule:evenodd;stroke:#000000;stroke-width:1px;stroke-linecap:butt;stroke-linejoin:miter;stroke-opacity:1" />
      <path
         id="path4877"
         d="M 939.28944,427.01294 L 943.21802,337.37008 L 968.21802,347.37008 L 968.21802,441.29865 L 964.28944,440.22722 L 966.07516,404.51294 C 966.07516,404.51294 966.07516,392.01294 959.28944,396.29865 C 952.50373,400.58436 952.86087,407.72722 952.86087,407.72722 L 952.86087,436.29865 L 939.28944,427.01294 z"
         style="fill:none;fill-rule:evenodd;stroke:#000000;stroke-width:1px;stroke-linecap:butt;stroke-linejoin:miter;stroke-opacity:1" />
      <path
         id="path4879"
         d="M 968.57516,440.58436 L 969.28944,347.72722 L 1010.3609,343.44151 C 1010.3609,343.44151 1013.218,350.22722 1013.218,354.51294 C 1013.218,358.79865 1009.6466,368.79865 1009.6466,368.79865 C 1009.6466,368.79865 1012.8609,437.01294 1010.718,437.01294 C 1008.5752,437.01294 1000.718,437.01294 1000.718,437.01294 L 999.64659,408.44151 C 999.64659,408.44151 996.78944,399.87008 991.78944,400.58436 C 986.78944,401.29865 983.57516,403.79865 982.14659,409.87008 C 980.71802,415.94151 981.4323,440.58436 981.4323,440.58436 L 968.57516,440.58436 z"
         style="fill:none;fill-rule:evenodd;stroke:#000000;stroke-width:1px;stroke-linecap:butt;stroke-linejoin:miter;stroke-opacity:1" />
      <path
         id="path4881"
         d="M 1012.1466,436.29865 L 1010.0037,368.44151 C 1010.0037,368.44151 1013.5752,354.51294 1013.5752,353.08436 C 1013.5752,351.65579 1010.3609,343.08436 1010.3609,343.08436 L 1028.5752,332.72722 C 1028.5752,332.72722 1031.7894,345.22722 1028.9323,357.72722 C 1026.0752,370.22722 1022.5037,384.87008 1022.5037,392.01294 C 1022.5037,399.15579 1025.0037,424.87008 1025.0037,424.87008 L 1012.1466,436.29865 z"
         style="fill:none;fill-rule:evenodd;stroke:#000000;stroke-width:1px;stroke-linecap:butt;stroke-linejoin:miter;stroke-opacity:1" />
      <path
         id="path4883"
         d="M 942.14659,333.79865 C 942.14659,332.01294 978.9323,206.65579 978.9323,206.65579 C 978.9323,206.65579 980.00373,204.15579 983.9323,203.79865 C 987.86087,203.44151 990.36087,208.08436 990.36087,208.08436 L 1031.4323,328.08436 L 1008.5752,342.01294 L 969.64659,346.29865 L 942.14659,333.79865 z"
         style="fill:none;fill-rule:evenodd;stroke:#000000;stroke-width:1px;stroke-linecap:butt;stroke-linejoin:miter;stroke-opacity:1" />
      <path
         sodipodi:nodetypes="ccccccccccscsccc"
         id="path4885"
         d="M 1077.1466,424.15579 L 1085.718,415.22722 L 1165.718,416.29865 L 1167.1466,431.29865 L 1170.718,443.08436 L 1164.2894,484.51294 L 1163.5752,505.58436 L 1158.5752,566.65579 L 1144.6466,567.01294 L 1084.6466,564.87008 C 1084.6466,564.87008 1084.2894,558.08436 1084.2894,554.87008 C 1084.2894,551.65579 1082.5037,544.15579 1082.5037,544.15579 C 1082.5037,544.15579 1086.0752,540.22722 1085.718,536.65579 C 1085.3609,533.08436 1082.8609,530.58436 1082.8609,530.58436 L 1089.2894,458.79865 L 1077.1466,424.15579 z"
         style="fill:none;fill-rule:evenodd;stroke:#000000;stroke-width:1px;stroke-linecap:butt;stroke-linejoin:miter;stroke-opacity:1" />
      <path
         id="path4887"
         d="M 1086.7894,414.15579 L 1096.7894,300.58436 C 1096.7894,300.58436 1078.5752,295.94151 1074.6466,294.51294 C 1070.718,293.08436 1067.5037,290.94151 1067.5037,290.94151 C 1067.5037,290.94151 1074.6466,331.29865 1074.6466,335.22722 C 1074.6466,339.15579 1062.8609,399.15579 1062.8609,399.15579 L 1086.7894,414.15579 z"
         style="fill:none;fill-rule:evenodd;stroke:#000000;stroke-width:1px;stroke-linecap:butt;stroke-linejoin:miter;stroke-opacity:1" />
      <path
         id="path4889"
         d="M 1096.4323,299.51294 C 1096.4323,299.51294 1132.8609,298.08436 1135.718,298.08436 C 1138.5752,298.08436 1168.9323,302.37008 1168.9323,302.37008 L 1165.3609,415.94151 L 1087.1466,415.22722 L 1096.4323,299.51294 z"
         style="fill:none;fill-rule:evenodd;stroke:#000000;stroke-width:1px;stroke-linecap:butt;stroke-linejoin:miter;stroke-opacity:1" />
      <path
         id="path4891"
         d="M 1092.1466,285.94151 L 1062.1466,271.65579 L 1067.8609,292.01294 L 1092.8609,299.51294 L 1092.1466,285.94151 z"
         style="fill:none;fill-rule:evenodd;stroke:#000000;stroke-width:1px;stroke-linecap:butt;stroke-linejoin:miter;stroke-opacity:1" />
      <path
         id="path4893"
         d="M 1093.218,286.29865 L 1151.0752,287.01294 L 1173.9323,295.58436 L 1168.9323,302.01294 C 1168.9323,302.01294 1138.5752,297.37008 1135.3609,297.72722 C 1132.1466,298.08436 1093.5752,299.87008 1093.5752,299.87008 L 1093.218,286.29865 z"
         style="fill:none;fill-rule:evenodd;stroke:#000000;stroke-width:1px;stroke-linecap:butt;stroke-linejoin:miter;stroke-opacity:1" />
      <path
         id="path4895"
         d="M 1092.8609,283.44151 C 1092.8609,283.44151 1091.7894,238.79865 1092.5037,232.37008 C 1093.218,225.94151 1086.0752,191.65579 1086.0752,191.65579 C 1086.0752,191.65579 1082.1466,183.08436 1083.5752,180.22722 C 1085.0037,177.37008 1085.3609,174.87008 1085.3609,174.87008 L 1056.7894,166.29865 C 1056.7894,166.29865 1050.718,172.01294 1050.718,175.58436 C 1050.718,179.15579 1056.7894,188.79865 1061.0752,192.37008 C 1065.3609,195.94151 1068.218,204.87008 1068.5752,209.87008 C 1068.9323,214.87008 1072.8609,259.15579 1072.8609,259.15579 L 1062.5037,272.37008 L 1093.9323,287.01294 L 1092.8609,283.44151 z"
         style="fill:none;fill-rule:evenodd;stroke:#000000;stroke-width:1px;stroke-linecap:butt;stroke-linejoin:miter;stroke-opacity:1" />
      <path
         id="path4897"
         d="M 1087.1466,174.87008 C 1087.1466,174.87008 1105.718,182.72722 1117.1466,183.08436 C 1128.5752,183.44151 1157.5037,182.37008 1157.5037,182.37008 C 1157.5037,182.37008 1163.218,184.51294 1163.5752,189.51294 C 1163.9323,194.51294 1162.1466,194.87008 1160.0037,197.37008 C 1157.8609,199.87008 1155.0037,201.65579 1155.0037,201.65579 L 1149.2894,287.01294 L 1094.2894,287.01294 L 1093.218,227.37008 C 1093.218,227.37008 1087.8609,193.79865 1086.0752,192.37008 C 1084.2894,190.94151 1082.1466,184.87008 1082.8609,183.08436 C 1083.5752,181.29865 1087.5037,174.51294 1087.1466,174.87008 z"
         style="fill:none;fill-rule:evenodd;stroke:#000000;stroke-width:1px;stroke-linecap:butt;stroke-linejoin:miter;stroke-opacity:1" />
      <path
         id="path4899"
         d="M 1143.218,182.01294 L 1155.718,165.22722 C 1155.718,165.22722 1168.5752,168.44151 1168.9323,174.51294 C 1169.2894,180.58436 1163.9323,186.65579 1163.9323,186.65579 C 1163.9323,186.65579 1161.7894,182.01294 1157.8609,182.01294 C 1153.9323,182.01294 1143.9323,182.72722 1143.218,182.01294 z"
         style="fill:none;fill-rule:evenodd;stroke:#000000;stroke-width:1px;stroke-linecap:butt;stroke-linejoin:miter;stroke-opacity:1" />
      <path
         id="path4901"
         d="M 1063.5752,166.29865 C 1063.9323,164.51294 1098.5752,34.870079 1098.5752,34.870079 C 1098.5752,34.870079 1099.6466,22.370079 1108.5752,22.727222 C 1117.5037,23.084365 1121.4323,37.727222 1121.4323,37.727222 L 1155.718,166.65579 L 1142.5037,182.01294 C 1142.5037,182.01294 1122.1466,185.22722 1110.718,182.72722 C 1099.2894,180.22722 1085.3609,174.87008 1085.3609,174.87008 L 1063.5752,166.29865 z"
         style="fill:none;fill-rule:evenodd;stroke:#000000;stroke-width:1px;stroke-linecap:butt;stroke-linejoin:miter;stroke-opacity:1" />
      <path
         id="path4903"
         d="M 1159.6466,559.15579 L 1164.6466,519.51294 C 1164.6466,519.51294 1177.8609,507.01294 1181.7894,507.01294 C 1185.718,507.01294 1237.8609,512.72722 1238.5752,514.15579 C 1239.2894,515.58436 1237.5037,538.44151 1239.6466,548.08436 C 1241.7894,557.72722 1245.3609,564.87008 1241.7894,572.37008 C 1238.218,579.87008 1241.0752,589.51294 1227.1466,589.15579 C 1213.218,588.79865 1200.3609,588.79865 1194.6466,583.79865 C 1188.9323,578.79865 1160.0037,558.44151 1159.6466,559.15579 z"
         style="fill:none;fill-rule:evenodd;stroke:#000000;stroke-width:1px;stroke-linecap:butt;stroke-linejoin:miter;stroke-opacity:1" />
      <path
         id="path4905"
         d="M 1192.5037,505.22722 L 1165.718,503.08436 L 1177.1466,500.22722 L 1187.1466,402.01294 L 1232.5037,407.37008 L 1230.0037,455.58436 L 1235.3609,488.79865 C 1235.3609,488.79865 1237.8609,499.87008 1235.3609,506.65579 C 1232.8609,513.44151 1232.8609,513.08436 1232.8609,513.08436 L 1220.3609,510.58436 L 1219.2894,465.94151 C 1219.2894,465.94151 1215.3609,456.65579 1207.1466,456.65579 C 1198.9323,456.65579 1193.5752,466.65579 1193.5752,466.65579 L 1194.2894,503.08436 L 1192.5037,505.22722 z"
         style="fill:none;fill-rule:evenodd;stroke:#000000;stroke-width:1px;stroke-linecap:butt;stroke-linejoin:miter;stroke-opacity:1" />
      <path
         id="path4907"
         d="M 1177.5037,500.58436 C 1177.5037,500.58436 1188.9323,401.65579 1187.8609,400.22722 C 1186.7894,398.79865 1166.7894,378.08436 1166.7894,378.08436 L 1165.718,415.94151 L 1167.5037,432.37008 L 1171.4323,444.87008 C 1171.4323,444.87008 1164.6466,479.51294 1164.6466,485.94151 C 1164.6466,492.37008 1164.2894,504.15579 1164.2894,504.15579 L 1179.2894,500.94151 L 1177.5037,500.58436 z"
         style="fill:none;fill-rule:evenodd;stroke:#000000;stroke-width:1px;stroke-linecap:butt;stroke-linejoin:miter;stroke-opacity:1" />
      <path
         id="path4909"
         d="M 1233.218,406.65579 L 1264.2894,383.08436 C 1264.2894,383.08436 1255.0037,405.58436 1255.718,412.72722 C 1256.4323,419.87008 1256.7894,444.15579 1256.7894,444.15579 L 1249.2894,461.29865 C 1249.2894,461.29865 1238.5752,462.37008 1241.4323,469.51294 C 1244.2894,476.65579 1251.4323,481.29865 1250.0037,486.65579 C 1248.5752,492.01294 1247.5037,493.44151 1251.4323,494.15579 C 1255.3609,494.87008 1259.2894,493.08436 1254.2894,497.37008 C 1249.2894,501.65579 1235.0037,513.79865 1235.0037,513.79865 L 1232.5037,513.08436 C 1232.5037,513.08436 1236.4323,503.79865 1236.4323,495.94151 C 1236.4323,488.08436 1229.6466,453.44151 1229.6466,453.44151 L 1233.218,406.65579 z"
         style="fill:none;fill-rule:evenodd;stroke:#000000;stroke-width:1px;stroke-linecap:butt;stroke-linejoin:miter;stroke-opacity:1" />
      <path
         id="path4911"
         d="M 1264.6466,383.08436 L 1269.6466,370.94151 L 1260.0037,362.01294 L 1237.8609,379.15579 L 1191.0752,376.65579 L 1167.1466,360.58436 L 1166.4323,378.79865 L 1189.2894,403.44151 L 1231.7894,407.37008 L 1264.6466,383.08436 z"
         style="fill:none;fill-rule:evenodd;stroke:#000000;stroke-width:1px;stroke-linecap:butt;stroke-linejoin:miter;stroke-opacity:1" />
      <path
         id="path4913"
         d="M 1190.3609,375.22722 C 1190.3609,373.08436 1195.718,316.29865 1195.718,316.29865 L 1243.9323,316.65579 L 1237.8609,378.79865 L 1233.5752,378.44151 L 1233.5752,345.58436 C 1233.5752,345.58436 1225.718,335.22722 1218.5752,335.22722 C 1211.4323,335.22722 1202.1466,343.44151 1202.1466,343.44151 L 1200.0037,376.65579 L 1190.3609,375.22722 z"
         style="fill:none;fill-rule:evenodd;stroke:#000000;stroke-width:1px;stroke-linecap:butt;stroke-linejoin:miter;stroke-opacity:1" />
      <path
         id="path4915"
         d="M 1191.0752,375.58436 L 1195.718,316.65579 L 1168.9323,303.44151 L 1166.7894,360.58436 L 1191.0752,375.58436 z"
         style="fill:none;fill-rule:evenodd;stroke:#000000;stroke-width:1px;stroke-linecap:butt;stroke-linejoin:miter;stroke-opacity:1" />
      <path
         id="path4917"
         d="M 1238.5752,378.44151 L 1244.2894,317.01294 L 1273.5752,295.22722 C 1273.5752,295.22722 1275.718,298.08436 1275.3609,299.87008 C 1275.0037,301.65579 1263.9323,312.01294 1263.9323,312.01294 L 1261.4323,361.29865 L 1238.5752,378.44151 z"
         style="fill:none;fill-rule:evenodd;stroke:#000000;stroke-width:1px;stroke-linecap:butt;stroke-linejoin:miter;stroke-opacity:1" />
      <path
         id="path4919"
         d="M 1273.5752,296.29865 L 1256.4323,288.08436 L 1242.1466,299.15579 L 1196.7894,300.58436 L 1175.0037,288.79865 L 1172.5037,295.22722 L 1168.9323,302.72722 L 1195.3609,316.65579 L 1245.0037,316.29865 L 1273.5752,296.29865 z"
         style="fill:none;fill-rule:evenodd;stroke:#000000;stroke-width:1px;stroke-linecap:butt;stroke-linejoin:miter;stroke-opacity:1" />
      <path
         id="path4921"
         d="M 1176.4323,287.72722 L 1215.718,179.87008 C 1215.718,179.87008 1219.6466,172.37008 1222.8609,173.08436 C 1226.0752,173.79865 1226.4323,180.22722 1226.4323,180.22722 L 1255.718,287.72722 L 1241.4323,298.79865 L 1196.0752,300.58436 L 1176.4323,287.72722 z"
         style="fill:none;fill-rule:evenodd;stroke:#000000;stroke-width:1px;stroke-linecap:butt;stroke-linejoin:miter;stroke-opacity:1" />
      <path
         id="path4923"
         d="M 1108.8871,408.93392 C 1108.8871,407.92377 1109.6447,373.32604 1109.6447,373.32604 C 1109.6447,373.32604 1112.4226,355.1433 1126.3122,353.88061 C 1140.2018,352.61791 1144.2424,376.86158 1144.2424,376.86158 L 1144.2424,407.92377 L 1108.8871,408.93392 z"
         style="fill:none;fill-rule:evenodd;stroke:#000000;stroke-width:1px;stroke-linecap:butt;stroke-linejoin:miter;stroke-opacity:1" />
      <path
         id="path4925"
         d="M 1093.9873,481.15983 L 1094.9975,463.22962 C 1094.9975,463.22962 1097.7754,455.90601 1102.8262,456.66363 C 1107.8769,457.42124 1110.4023,464.23977 1110.4023,464.23977 L 1109.1396,480.90729 L 1093.9873,481.15983 z"
         style="fill:none;fill-rule:evenodd;stroke:#000000;stroke-width:1px;stroke-linecap:butt;stroke-linejoin:miter;stroke-opacity:1" />
      <path
         id="path4927"
         d="M 1116.4632,479.6446 L 1117.7259,461.96693 C 1117.7259,461.96693 1119.9988,455.1484 1125.3021,454.89586 C 1130.6054,454.64332 1132.8782,463.48216 1132.8782,463.48216 L 1132.3731,479.39206 L 1116.4632,479.6446 z"
         style="fill:none;fill-rule:evenodd;stroke:#000000;stroke-width:1px;stroke-linecap:butt;stroke-linejoin:miter;stroke-opacity:1" />
      <path
         id="path4929"
         d="M 1143.9899,480.90729 L 1143.2323,459.94662 C 1143.2323,459.94662 1144.2424,455.40094 1151.061,454.64332 C 1157.8795,453.88571 1159.3947,461.96693 1159.3947,461.96693 L 1158.8896,480.65475 L 1143.9899,480.90729 z"
         style="fill:none;fill-rule:evenodd;stroke:#000000;stroke-width:1px;stroke-linecap:butt;stroke-linejoin:miter;stroke-opacity:1" />
      <path
         id="path4931"
         d="M 1106.6142,558.94157 C 1106.6142,556.41619 1106.1092,517.27278 1106.1092,517.27278 C 1106.1092,517.27278 1110.6548,502.87811 1123.2818,502.37303 C 1135.9087,501.86795 1142.4747,515.25247 1142.4747,515.25247 L 1141.4645,560.20426 L 1106.6142,558.94157 z"
         style="fill:none;fill-rule:evenodd;stroke:#000000;stroke-width:1px;stroke-linecap:butt;stroke-linejoin:miter;stroke-opacity:1" />
      <path
         id="path4933"
         d="M 1032.5037,581.65579 L 1077.8609,577.72722 L 1086.4323,593.44151 L 1158.5752,593.44151 L 1209.6466,626.65579 L 1210.0037,652.37008 C 1210.0037,652.37008 1193.218,692.01294 1165.718,689.87008 C 1138.218,687.72722 1106.0752,681.65579 1095.0037,668.79865 C 1083.9323,655.94151 1072.8609,644.87008 1075.0037,634.51294 C 1077.1466,624.15579 1090.3609,623.44151 1075.718,610.94151 C 1061.0752,598.44151 1050.3609,587.01294 1041.4323,598.44151 C 1032.5037,609.87008 1025.718,619.15579 1025.718,619.15579 L 1023.5752,581.29865 L 1032.5037,581.65579 z"
         style="fill:none;fill-rule:evenodd;stroke:#000000;stroke-width:1px;stroke-linecap:butt;stroke-linejoin:miter;stroke-opacity:1" />
      <path
         id="path4935"
         d="M 1163.9323,587.01294 L 1166.7894,564.51294 L 1168.5752,565.94151 L 1167.8609,591.65579 L 1163.9323,587.01294 z"
         style="fill:none;fill-rule:evenodd;stroke:#000000;stroke-width:1px;stroke-linecap:butt;stroke-linejoin:miter;stroke-opacity:1" />
      <path
         id="path4937"
         d="M 1173.5752,590.94151 L 1172.1466,568.79865 L 1174.2894,569.51294 L 1176.0752,592.72722 L 1173.5752,590.94151 z"
         style="fill:none;fill-rule:evenodd;stroke:#000000;stroke-width:1px;stroke-linecap:butt;stroke-linejoin:miter;stroke-opacity:1" />
      <path
         id="path4939"
         d="M 1179.6466,593.44151 L 1178.9323,573.08436 L 1183.218,580.22722 L 1179.6466,593.44151 z"
         style="fill:none;fill-rule:evenodd;stroke:#000000;stroke-width:1px;stroke-linecap:butt;stroke-linejoin:miter;stroke-opacity:1" />
      <path
         id="path4941"
         d="M 1186.4323,597.72722 L 1186.4323,579.87008 L 1188.218,580.58436 L 1188.218,597.72722 L 1186.4323,597.72722 z"
         style="fill:none;fill-rule:evenodd;stroke:#000000;stroke-width:1px;stroke-linecap:butt;stroke-linejoin:miter;stroke-opacity:1" />
      <path
         id="path4943"
         d="M 1193.5752,603.44151 L 1192.8609,585.22722 C 1192.8609,585.22722 1195.718,585.94151 1195.718,587.72722 C 1195.718,589.51294 1195.0037,604.51294 1193.5752,603.44151 z"
         style="fill:none;fill-rule:evenodd;stroke:#000000;stroke-width:1px;stroke-linecap:butt;stroke-linejoin:miter;stroke-opacity:1" />
      <path
         id="path4945"
         d="M 1160.0037,587.01294 L 1162.1466,564.51294"
         style="fill:none;fill-rule:evenodd;stroke:#000000;stroke-width:1px;stroke-linecap:butt;stroke-linejoin:miter;stroke-opacity:1" />
      <path
         id="path4947"
         d="M 1171.0752,591.65579 L 1170.718,567.72722"
         style="fill:none;fill-rule:evenodd;stroke:#000000;stroke-width:1px;stroke-linecap:butt;stroke-linejoin:miter;stroke-opacity:1" />
      <path
         id="path4949"
         d="M 1178.218,593.08436 L 1176.4323,572.37008"
         style="fill:none;fill-rule:evenodd;stroke:#000000;stroke-width:1px;stroke-linecap:butt;stroke-linejoin:miter;stroke-opacity:1" />
      <path
         id="path4951"
         d="M 1183.218,594.87008 C 1183.218,593.08436 1184.6466,578.08436 1184.6466,578.08436"
         style="fill:none;fill-rule:evenodd;stroke:#000000;stroke-width:1px;stroke-linecap:butt;stroke-linejoin:miter;stroke-opacity:1" />
      <path
         id="path4953"
         d="M 1190.718,598.79865 L 1190.3609,582.72722"
         style="fill:none;fill-rule:evenodd;stroke:#000000;stroke-width:1px;stroke-linecap:butt;stroke-linejoin:miter;stroke-opacity:1" />
      <path
         id="path4955"
         d="M 1202.5037,610.58436 L 1158.5752,587.72722 L 1159.2894,592.37008 L 1203.5752,621.65579 L 1202.5037,610.58436 z"
         style="fill:none;fill-rule:evenodd;stroke:#000000;stroke-width:1px;stroke-linecap:butt;stroke-linejoin:miter;stroke-opacity:1" />
      <path
         id="path4957"
         d="M 1157.1466,591.65579 C 1157.8609,589.15579 1159.2894,567.37008 1159.2894,567.37008 L 1085.0037,565.22722 C 1085.0037,565.22722 1080.718,542.37008 1070.3609,541.29865 C 1060.0037,540.22722 1035.0037,559.87008 1031.4323,568.79865 C 1027.8609,577.72722 1026.7894,580.58436 1026.7894,580.58436 L 1078.9323,576.65579 L 1087.1466,592.37008 L 1157.1466,591.65579 z"
         style="fill:none;fill-rule:evenodd;stroke:#000000;stroke-width:1px;stroke-linecap:butt;stroke-linejoin:miter;stroke-opacity:1" />
      <path
         id="path4959"
         d="M 949.64659,687.72722 L 1006.7894,684.15579 L 1003.5752,692.37008 L 946.4323,695.94151 L 949.64659,687.72722 z"
         style="fill:none;fill-rule:evenodd;stroke:#000000;stroke-width:1px;stroke-linecap:butt;stroke-linejoin:miter;stroke-opacity:1" />
      <path
         id="path4961"
         d="M 946.4323,710.22722 L 1000.3609,708.08436 L 997.50373,718.44151 L 942.50373,719.87008 L 946.4323,710.22722 z"
         style="fill:none;fill-rule:evenodd;stroke:#000000;stroke-width:1px;stroke-linecap:butt;stroke-linejoin:miter;stroke-opacity:1" />
      <path
         id="path4963"
         d="M 948.9323,736.29865 L 995.71802,734.87008 L 993.21802,743.79865 L 943.21802,744.15579 L 943.57516,736.29865 L 948.9323,736.29865 z"
         style="fill:none;fill-rule:evenodd;stroke:#000000;stroke-width:1px;stroke-linecap:butt;stroke-linejoin:miter;stroke-opacity:1" />
      <path
         id="path4965"
         d="M 950.36087,758.44151 L 991.78944,758.79865 L 989.64659,770.58437 L 948.9323,769.15579 L 950.36087,758.44151 z"
         style="fill:none;fill-rule:evenodd;stroke:#000000;stroke-width:1px;stroke-linecap:butt;stroke-linejoin:miter;stroke-opacity:1" />
      <path
         id="path4967"
         d="M 1006.0752,681.65579 C 1007.1466,679.51294 1018.9323,652.01294 1018.9323,652.01294 L 959.28944,656.29865 L 934.28944,615.58436 L 929.64659,629.51294 L 940.00373,687.37008 L 1006.7894,683.44151 L 1006.0752,681.65579 z"
         style="fill:none;fill-rule:evenodd;stroke:#000000;stroke-width:1px;stroke-linecap:butt;stroke-linejoin:miter;stroke-opacity:1" />
      <path
         id="path4969"
         d="M 1003.9323,693.44151 L 945.36087,695.94151 L 944.64659,709.87008 L 1001.0752,707.72722 L 1003.9323,693.44151 z"
         style="fill:none;fill-rule:evenodd;stroke:#000000;stroke-width:1px;stroke-linecap:butt;stroke-linejoin:miter;stroke-opacity:1" />
      <path
         id="path4971"
         d="M 997.50373,719.51294 L 943.21802,720.22722 L 942.86087,735.22722 L 996.4323,733.79865 L 997.50373,719.51294 z"
         style="fill:none;fill-rule:evenodd;stroke:#000000;stroke-width:1px;stroke-linecap:butt;stroke-linejoin:miter;stroke-opacity:1" />
      <path
         id="path4973"
         d="M 993.57516,744.15579 L 943.9323,744.87008 L 950.00373,758.79865 C 950.00373,758.79865 992.14659,760.94151 992.50373,758.79865 C 992.86087,756.65579 994.28944,744.87008 993.57516,744.15579 z"
         style="fill:none;fill-rule:evenodd;stroke:#000000;stroke-width:1px;stroke-linecap:butt;stroke-linejoin:miter;stroke-opacity:1" />
      <path
         id="path4975"
         d="M 990.71802,793.79865 C 992.14659,791.65579 989.64659,772.01294 989.64659,770.22722 C 989.64659,768.44151 993.21802,759.51294 993.21802,758.08437 C 993.21802,756.65579 995.00373,745.22722 995.00373,745.22722 L 997.50373,733.79865 L 998.21802,718.08437 L 1001.7894,708.08436 L 1004.6466,692.72722 C 1004.6466,692.72722 1007.1466,684.15579 1007.1466,682.72722 C 1007.1466,681.29865 1019.2894,652.01294 1019.2894,652.01294 L 1026.0752,652.01294 L 1024.6466,618.79865 C 1024.6466,618.79865 1040.718,593.44151 1048.5752,594.87008 C 1056.4323,596.29865 1082.5037,613.08436 1081.7894,618.44151 C 1081.0752,623.79865 1071.0752,625.58436 1073.5752,635.94151 C 1076.0752,646.29865 1086.0752,667.72722 1101.7894,677.37008 C 1117.5037,687.01294 1122.1466,693.79865 1122.1466,693.79865 L 1121.7894,703.79865 C 1121.7894,703.79865 1094.6466,701.29865 1093.218,702.37008 C 1091.7894,703.44151 1083.9323,726.29865 1083.9323,727.72722 C 1083.9323,729.15579 1082.5037,748.79865 1082.5037,752.37008 C 1082.5037,755.94151 1085.0037,784.15579 1085.0037,784.15579 L 1088.5752,812.01294 C 1088.5752,812.01294 1081.7894,813.79865 1080.3609,813.79865 C 1078.9323,813.79865 1047.5037,812.01294 1032.8609,809.51294 C 1018.218,807.01294 1023.5752,802.01294 1011.4323,803.44151 C 999.28944,804.87008 993.21802,804.87008 991.07516,802.37008 C 988.9323,799.87008 991.78944,793.79865 990.71802,793.79865 z"
         style="fill:none;fill-opacity:1;fill-rule:evenodd;stroke:#000000;stroke-width:1px;stroke-linecap:butt;stroke-linejoin:miter;stroke-opacity:1" />
      <path
         id="path4977"
         d="M 1117.1466,682.01294 C 1117.1466,682.01294 1157.5037,691.29865 1174.6466,689.51294 C 1191.7894,687.72722 1187.8609,686.29865 1187.8609,686.29865 C 1187.8609,686.29865 1210.0037,704.51294 1208.9323,712.01294 C 1207.8609,719.51294 1197.1466,709.87008 1195.0037,726.65579 C 1192.8609,743.44151 1202.1466,750.94151 1192.8609,757.72722 C 1183.5752,764.51294 1182.5037,748.79865 1181.0752,757.72722 C 1179.6466,766.65579 1190.3609,773.79865 1175.0037,782.01294 C 1159.6466,790.22722 1127.5037,813.08437 1145.3609,809.15579 C 1163.218,805.22722 1172.5037,787.72722 1183.9323,793.44151 C 1195.3609,799.15579 1187.5037,810.58437 1203.9323,808.44151 C 1220.3609,806.29865 1223.9323,804.15579 1235.3609,810.58437 C 1246.7894,817.01294 1248.218,812.01294 1242.8609,823.08437 C 1237.5037,834.15579 1246.0752,840.22722 1223.9323,848.44151 C 1201.7894,856.65579 1214.6466,863.08437 1188.5752,856.29865 C 1162.5037,849.51294 1146.7894,833.08437 1128.218,833.44151 C 1109.6466,833.79865 1107.8609,836.29865 1096.4323,829.15579 C 1085.0037,822.01294 1079.2894,816.29865 1079.2894,816.29865 L 1089.2894,812.01294 C 1089.2894,812.01294 1077.1466,742.01294 1083.9323,729.51294 C 1090.718,717.01294 1093.218,702.37008 1093.218,702.37008 C 1093.218,702.37008 1122.5037,704.51294 1122.5037,703.08436 C 1122.5037,701.65579 1122.8609,693.08436 1122.8609,693.08436 L 1093.218,668.79865 L 1117.1466,682.01294 z"
         style="fill:none;fill-opacity:1;fill-rule:evenodd;stroke:#000000;stroke-width:1px;stroke-linecap:butt;stroke-linejoin:miter;stroke-opacity:1" />
      <path
         sodipodi:nodetypes="ccsssssscccssssssssssscssssscscsccssssssccsssccc"
         id="path4979"
         d="M 1257.5037,430.58436 L 1272.8609,457.01294 C 1272.8609,457.01294 1290.718,469.51294 1296.0752,480.22722 C 1301.4323,490.94151 1311.7894,525.94151 1310.3609,534.51294 C 1308.9323,543.08436 1307.1466,553.79865 1311.4323,567.37008 C 1315.718,580.94151 1312.5037,618.08436 1312.5037,625.94151 C 1312.5037,633.79865 1304.6466,642.01294 1309.6466,655.22722 C 1314.6466,668.44151 1320.3609,712.37008 1316.4323,714.51294 C 1312.5037,716.65579 1307.5037,723.08437 1307.5037,723.08437 L 1306.7894,752.01294 L 1302.5037,765.94151 C 1302.5037,765.94151 1289.2894,770.22722 1286.0752,775.94151 C 1282.8609,781.65579 1281.7894,788.79865 1280.0037,797.72722 C 1278.218,806.65579 1277.8609,813.08437 1272.1466,815.58437 C 1266.4323,818.08437 1271.4323,822.01294 1270.718,827.01294 C 1270.0037,832.01294 1285.718,842.01294 1265.0037,839.51294 C 1244.2894,837.01294 1238.5752,838.44151 1239.2894,836.29865 C 1240.0037,834.15579 1243.9323,819.51294 1245.718,817.37008 C 1247.5037,815.22722 1233.218,806.29865 1226.7894,806.29865 C 1220.3609,806.29865 1202.5037,813.44151 1196.7894,808.44151 C 1191.0752,803.44151 1192.8411,796.03293 1184.2894,793.44151 C 1172.5037,789.87008 1136.4323,818.08437 1142.5037,806.6558 C 1148.5752,795.22723 1165.0037,788.44151 1165.0037,788.44151 C 1165.0037,788.44151 1185.3609,780.94151 1185.3609,774.87008 C 1185.3609,768.79865 1177.1466,749.51294 1182.1466,755.22722 C 1187.1466,760.94151 1194.2894,759.51294 1196.0752,755.22722 C 1197.8609,750.94151 1187.1466,721.65579 1198.5752,718.44151 C 1210.0037,715.22722 1211.0752,720.22722 1210.0037,712.72722 C 1208.9323,705.22722 1188.218,684.51294 1188.218,684.51294 C 1188.218,684.51294 1210.718,656.65579 1211.0752,653.79865 C 1211.4323,650.94151 1210.0037,624.87008 1210.0037,624.87008 C 1210.0037,624.87008 1203.5752,623.79865 1203.5752,621.29865 C 1203.5752,618.79865 1201.7894,609.87008 1201.7894,609.87008 L 1195.3609,607.01294 C 1195.3609,607.01294 1191.4323,594.15579 1198.5752,592.37008 C 1205.718,590.58436 1213.9323,594.87008 1218.5752,592.72722 C 1223.218,590.58436 1231.7894,592.01294 1236.0752,588.08436 C 1240.3609,584.15579 1243.9323,572.37008 1243.9323,565.58436 C 1243.9323,558.79865 1238.5752,545.22722 1238.9323,540.94151 C 1239.2894,536.65579 1240.718,515.58436 1238.9323,513.79865 C 1237.1466,512.01294 1237.1466,512.01294 1237.1466,512.01294 L 1256.7894,495.22722 C 1256.7894,495.22722 1248.5752,495.58436 1249.2894,493.08436 C 1250.0037,490.58436 1252.1466,488.79865 1250.718,484.51294 C 1249.2894,480.22722 1238.218,470.94151 1242.1466,465.58436 C 1246.0752,460.22722 1250.3609,460.22722 1250.3609,460.22722 L 1257.5037,443.79865 L 1257.5037,430.58436 z"
         style="fill:none;fill-rule:evenodd;stroke:#000000;stroke-width:1px;stroke-linecap:butt;stroke-linejoin:miter;stroke-opacity:1" />
      <path
         id="path4981"
         d="M 845.71802,593.44151 L 868.21802,617.01294 C 868.21802,617.01294 881.78944,627.72722 886.4323,625.94151 C 891.07516,624.15579 899.64659,616.29865 904.28944,615.94151 C 908.9323,615.58436 931.4323,618.08436 933.57516,617.01294 C 935.71802,615.94151 930.00373,629.51294 930.00373,629.51294 L 939.28944,687.37008 L 950.00373,686.65579 L 946.07516,696.29865 L 945.00373,710.22722 L 943.21802,719.87008 L 943.21802,732.72722 L 944.28944,747.37008 L 949.28944,759.15579 C 949.28944,759.15579 913.21802,761.65579 904.28944,767.37008 C 895.36087,773.08437 894.28944,798.08437 882.50373,809.87008 C 870.71802,821.65579 866.4323,823.08437 855.36087,814.87008 C 844.28944,806.65579 837.86087,814.51294 838.57516,804.15579 C 839.28944,793.79865 861.78944,783.08437 847.14659,770.22722 C 832.50373,757.37008 813.9323,762.01294 817.14659,750.58437 C 820.36087,739.15579 821.07516,739.15579 817.86087,731.29865 C 814.64659,723.44151 817.86087,723.44151 821.78944,711.65579 C 825.71802,699.87008 823.57516,696.29865 823.57516,692.72722 C 823.57516,689.15579 829.28944,684.15579 832.50373,678.44151 C 835.71802,672.72722 838.57516,671.29865 835.71802,663.44151 C 832.86087,655.58436 831.78944,653.79865 835.00373,645.58436 C 838.21802,637.37008 837.14659,633.08436 837.50373,628.44151 C 837.86087,623.79865 843.21802,622.72722 843.57516,614.51294 C 843.9323,606.29865 845.71802,593.44151 845.71802,593.44151 z"
         style="fill:none;fill-rule:evenodd;stroke:#000000;stroke-width:1px;stroke-linecap:butt;stroke-linejoin:miter;stroke-opacity:1" />
      <path
         id="path4983"
         d="M 863.21802,769.15579 C 865.36087,766.29865 868.9323,757.37008 871.78944,760.58437 C 874.64659,763.79865 879.64659,767.72722 879.64659,762.37008 C 879.64659,757.01294 873.57516,753.79865 880.36087,751.65579 C 887.14659,749.51294 890.71802,753.79865 890.36087,747.37008 C 890.00373,740.94151 887.50373,734.15579 884.28944,738.08437 C 881.07516,742.01294 883.57516,747.01294 878.9323,748.79865 C 874.28944,750.58437 873.57516,751.29865 871.4323,747.72722 C 869.28944,744.15579 867.14659,733.08437 863.21802,738.08437 C 859.28944,743.08437 857.14659,740.22722 859.28944,749.15579 C 861.4323,758.08437 863.21802,752.72722 861.4323,759.87008 C 859.64659,767.01294 863.57516,770.94151 863.57516,770.94151 L 863.21802,769.15579 z"
         style="fill:none;fill-rule:evenodd;stroke:#000000;stroke-width:1px;stroke-linecap:butt;stroke-linejoin:miter;stroke-opacity:1" />
      <path
         id="path4985"
         d="M 844.28944,739.15579 C 845.36087,736.29865 861.07516,720.58437 858.21802,715.94151 C 855.36087,711.29865 852.86087,715.58437 855.36087,709.87008 C 857.86087,704.15579 865.00373,697.37008 856.78944,696.29865 C 848.57516,695.22722 845.71802,698.79865 843.57516,702.37008 C 841.4323,705.94151 835.00373,706.29865 838.57516,711.65579 C 842.14659,717.01294 850.36087,713.79865 849.28944,719.15579 C 848.21802,724.51294 842.50373,728.44151 842.50373,734.51294 C 842.50373,740.58437 845.71802,739.15579 844.28944,739.15579 z"
         style="fill:none;fill-rule:evenodd;stroke:#000000;stroke-width:1px;stroke-linecap:butt;stroke-linejoin:miter;stroke-opacity:1" />
      <path
         id="path4987"
         d="M 862.86087,676.65579 C 864.64659,672.72722 871.78944,672.72722 871.78944,667.72722 C 871.78944,662.72722 868.21802,660.58436 874.64659,658.44151 C 881.07516,656.29865 884.28944,659.51294 883.57516,653.79865 C 882.86087,648.08436 881.78944,639.87008 880.00373,638.79865 C 878.21802,637.72722 875.00373,634.87008 871.4323,639.87008 C 867.86087,644.87008 865.00373,651.65579 863.9323,654.15579 C 862.86087,656.65579 861.4323,657.72722 862.50373,662.37008 C 863.57516,667.01294 863.9323,665.22722 860.36087,669.87008 C 856.78944,674.51294 851.78944,675.58436 855.00373,678.08436 C 858.21802,680.58436 863.9323,676.29865 862.86087,676.65579 z"
         style="fill:none;fill-rule:evenodd;stroke:#000000;stroke-width:1px;stroke-linecap:butt;stroke-linejoin:miter;stroke-opacity:1" />
      <path
         id="path4989"
         d="M 852.50373,660.22722 C 854.64659,653.44151 862.14659,652.72722 858.21802,644.87008 C 854.28944,637.01294 851.78944,636.29865 848.9323,635.22722 C 846.07516,634.15579 843.21802,629.87008 843.21802,635.22722 C 843.21802,640.58436 849.64659,644.15579 848.57516,649.15579 C 847.50373,654.15579 846.07516,654.51294 846.78944,658.79865 C 847.50373,663.08436 850.36087,666.65579 851.4323,664.87008 C 852.50373,663.08436 853.21802,660.22722 852.50373,660.22722 z"
         style="fill:none;fill-rule:evenodd;stroke:#000000;stroke-width:1px;stroke-linecap:butt;stroke-linejoin:miter;stroke-opacity:1" />
      <path
         id="path4991"
         d="M 912.50373,747.01294 C 908.57516,741.65579 912.50373,740.22722 907.14659,735.94151 C 901.78944,731.65579 902.50373,735.22722 896.07516,732.37008 C 889.64659,729.51294 885.71802,729.51294 885.36087,726.65579 C 885.00373,723.79865 880.71802,717.01294 890.00373,718.44151 C 899.28944,719.87008 902.86087,725.58437 904.28944,726.29865 C 905.71802,727.01294 908.57516,725.58437 910.36087,727.72722 C 912.14659,729.87008 914.64659,730.94151 912.50373,721.29865 C 910.36087,711.65579 907.14659,710.94151 911.07516,706.65579 C 915.00373,702.37008 922.50373,696.65579 925.36087,696.29865 C 928.21802,695.94151 927.14659,689.51294 933.21802,695.94151 C 939.28944,702.37008 942.86087,697.01294 940.36087,706.29865 C 937.86087,715.58437 939.64659,723.08437 936.78944,725.58437 C 933.9323,728.08437 940.36087,737.72722 931.78944,731.29865 C 923.21802,724.87008 927.50373,721.65579 921.78944,724.15579 C 916.07516,726.65579 914.28944,724.51294 915.71802,729.87008 C 917.14659,735.22722 916.07516,738.79865 921.78944,738.79865 C 927.50373,738.79865 935.00373,738.79865 935.00373,738.79865 C 935.00373,738.79865 936.4323,744.87008 933.21802,745.22722 C 930.00373,745.58437 925.36087,742.72722 927.86087,746.65579 C 930.36087,750.58437 936.78944,757.72722 933.57516,757.72722 C 930.36087,757.72722 928.9323,758.08437 925.00373,755.22722 C 921.07516,752.37008 918.9323,749.87008 916.4323,748.44151 C 913.9323,747.01294 911.4323,746.29865 912.50373,747.01294 z"
         style="fill:none;fill-rule:evenodd;stroke:#000000;stroke-width:1px;stroke-linecap:butt;stroke-linejoin:miter;stroke-opacity:1" />
      <path
         id="path4993"
         d="M 1041.4323,653.08436 C 1033.9323,656.65579 1032.5037,654.15579 1030.718,659.87008 C 1028.9323,665.58436 1031.4323,672.72722 1036.0752,667.01294 C 1040.718,661.29865 1043.218,661.65579 1043.218,659.51294 C 1043.218,657.37008 1042.5037,652.01294 1041.4323,653.08436 z"
         style="fill:none;fill-rule:evenodd;stroke:#000000;stroke-width:1px;stroke-linecap:butt;stroke-linejoin:miter;stroke-opacity:1" />
      <path
         id="path4995"
         d="M 1025.3609,675.22722 C 1023.5752,679.15579 1025.718,681.29865 1021.7894,677.72722 C 1017.8609,674.15579 1012.1466,674.51294 1017.1466,672.01294 C 1022.1466,669.51294 1023.218,664.51294 1023.9323,669.51294 C 1024.6466,674.51294 1026.0752,675.94151 1025.3609,675.22722 z"
         style="fill:none;fill-rule:evenodd;stroke:#000000;stroke-width:1px;stroke-linecap:butt;stroke-linejoin:miter;stroke-opacity:1" />
      <path
         id="path4997"
         d="M 1021.7894,710.94151 C 1018.5752,713.79865 1012.5037,717.01294 1012.1466,718.44151 C 1011.7894,719.87008 1010.3609,729.51294 1016.7894,726.65579 C 1023.218,723.79865 1024.6466,721.29865 1026.7894,714.51294 C 1028.9323,707.72722 1035.0037,704.51294 1037.1466,706.29865 C 1039.2894,708.08436 1049.2894,716.65579 1047.8609,710.58437 C 1046.4323,704.51294 1048.9323,693.44151 1043.9323,697.37008 C 1038.9323,701.29865 1036.0752,704.51294 1036.0752,704.51294 C 1036.0752,704.51294 1030.0037,701.65579 1032.8609,698.44151 C 1035.718,695.22722 1045.3609,695.22722 1041.4323,691.65579 C 1037.5037,688.08436 1033.9323,685.22722 1031.7894,690.94151 C 1029.6466,696.65579 1029.6466,698.79865 1028.5752,702.01294 C 1027.5037,705.22722 1025.0037,706.29865 1023.5752,708.44151 C 1022.1466,710.58437 1020.718,711.29865 1021.7894,710.94151 z"
         style="fill:none;fill-rule:evenodd;stroke:#000000;stroke-width:1px;stroke-linecap:butt;stroke-linejoin:miter;stroke-opacity:1" />
      <path
         id="path4999"
         d="M 1071.4323,717.01294 C 1066.7894,720.22722 1064.6466,730.94151 1062.5037,729.87008 C 1060.3609,728.79865 1060.3609,732.37008 1055.718,728.44151 C 1051.0752,724.51294 1051.4323,718.44151 1047.8609,719.87008 C 1044.2894,721.29865 1042.5037,722.72722 1040.718,724.51294 C 1038.9323,726.29865 1035.0037,723.79865 1032.8609,725.22722 C 1030.718,726.65579 1036.7894,734.51294 1038.9323,734.87008 C 1041.0752,735.22722 1041.7894,731.29865 1043.5752,737.01294 C 1045.3609,742.72722 1047.8609,742.37008 1052.5037,738.08437 C 1057.1466,733.79865 1057.8609,739.15579 1060.3609,738.79865 C 1062.8609,738.44151 1061.0752,744.15579 1068.5752,737.37008 C 1076.0752,730.58437 1073.218,724.51294 1073.218,722.37008 C 1073.218,720.22722 1071.7894,717.01294 1071.4323,717.01294 z"
         style="fill:none;fill-rule:evenodd;stroke:#000000;stroke-width:1px;stroke-linecap:butt;stroke-linejoin:miter;stroke-opacity:1" />
      <path
         id="path5001"
         d="M 1033.5752,779.87008 C 1032.5037,772.37008 1024.2894,764.87008 1032.1466,766.65579 C 1040.0037,768.44151 1043.9323,771.29865 1042.5037,765.58437 C 1041.0752,759.87008 1040.0037,753.44151 1040.0037,753.44151 C 1040.0037,753.44151 1036.0752,738.08437 1032.1466,743.08437 C 1028.218,748.08437 1023.9323,750.94151 1023.9323,754.15579 C 1023.9323,757.37008 1030.3609,763.79865 1030.3609,763.79865 C 1030.3609,763.79865 1024.2894,767.72722 1024.2894,771.29865 C 1024.2894,774.87008 1024.6466,777.37008 1027.8609,779.87008 C 1031.0752,782.37008 1033.218,781.29865 1033.5752,779.87008 z"
         style="fill:none;fill-rule:evenodd;stroke:#000000;stroke-width:1px;stroke-linecap:butt;stroke-linejoin:miter;stroke-opacity:1" />
      <path
         id="path5003"
         d="M 1026.7894,800.58437 C 1025.718,798.08437 1009.2894,796.65579 1026.4323,794.51294 C 1043.5752,792.37008 1043.218,791.65579 1044.2894,789.87008 C 1045.3609,788.08437 1048.218,791.65579 1054.6466,788.79865 C 1061.0752,785.94151 1063.218,787.37008 1064.2894,784.15579 C 1065.3609,780.94151 1075.0037,772.72722 1065.3609,776.65579 C 1055.718,780.58437 1057.8609,782.72722 1053.218,780.22722 C 1048.5752,777.72722 1041.7894,778.08437 1041.7894,778.08437 C 1041.7894,778.08437 1040.0037,773.08437 1050.0037,772.01294 C 1060.0037,770.94151 1059.6466,772.72722 1060.718,770.94151 C 1061.7894,769.15579 1062.5037,765.22722 1060.0037,761.65579 C 1057.5037,758.08437 1050.3609,757.01294 1055.718,752.72722 C 1061.0752,748.44151 1060.0037,747.37008 1062.5037,747.01294 C 1065.0037,746.65579 1067.1466,746.29865 1070.718,750.94151 C 1074.2894,755.58437 1080.0037,750.58437 1081.0752,753.08437 C 1082.1466,755.58437 1082.5037,763.08437 1082.5037,763.08437 C 1082.5037,763.08437 1079.2894,761.65579 1075.0037,760.58437 C 1070.718,759.51294 1066.0752,751.29865 1065.718,759.51294 C 1065.3609,767.72722 1059.2894,772.01294 1066.4323,769.51294 C 1073.5752,767.01294 1074.2894,762.01294 1074.2894,766.65579 C 1074.2894,771.29865 1068.5752,774.51294 1071.7894,777.01294 C 1075.0037,779.51294 1082.1466,780.94151 1082.1466,783.08437 C 1082.1466,785.22722 1082.5037,784.15579 1083.5752,792.72722 C 1084.6466,801.29865 1087.1466,805.58437 1084.6466,807.37008 C 1082.1466,809.15579 1082.5037,812.37008 1076.0752,811.65579 C 1069.6466,810.94151 1060.718,812.37008 1052.5037,809.87008 C 1044.2894,807.37008 1043.5752,806.65579 1036.7894,806.65579 C 1030.0037,806.65579 1025.718,805.22722 1025.718,805.22722 L 1026.7894,800.58437 z"
         style="fill:none;fill-rule:evenodd;stroke:#000000;stroke-width:1px;stroke-linecap:butt;stroke-linejoin:miter;stroke-opacity:1" />
      <path
         id="path5005"
         d="M 1070.3609,653.44151 C 1065.0037,647.01294 1060.0037,648.44151 1058.9323,644.51294 C 1057.8609,640.58436 1057.8609,639.15579 1057.8609,634.87008 C 1057.8609,630.58436 1055.718,624.51294 1059.6466,625.58436 C 1063.5752,626.65579 1065.0037,625.58436 1065.0037,631.29865 C 1065.0037,637.01294 1061.7894,646.29865 1065.3609,644.15579 C 1068.9323,642.01294 1066.4323,638.79865 1070.3609,642.01294 C 1074.2894,645.22722 1074.2894,647.37008 1075.718,650.22722 C 1077.1466,653.08436 1076.0752,656.65579 1074.6466,655.94151 C 1073.218,655.22722 1070.718,654.15579 1070.3609,653.44151 z"
         style="fill:none;fill-rule:evenodd;stroke:#000000;stroke-width:1px;stroke-linecap:butt;stroke-linejoin:miter;stroke-opacity:1" />
      <path
         id="path5007"
         d="M 1256.7894,656.65579 C 1263.218,660.94151 1268.5752,654.15579 1270.0037,659.51294 C 1271.4323,664.87008 1269.2894,672.72722 1267.1466,673.79865 C 1265.0037,674.87008 1262.1466,678.44151 1261.0752,675.22722 C 1260.0037,672.01294 1263.218,662.01294 1257.8609,665.22722 C 1252.5037,668.44151 1256.0752,669.87008 1250.718,669.51294 C 1245.3609,669.15579 1243.9323,667.72722 1248.5752,664.51294 C 1253.218,661.29865 1256.7894,657.01294 1256.7894,656.65579 z"
         style="fill:none;fill-rule:evenodd;stroke:#000000;stroke-width:1px;stroke-linecap:butt;stroke-linejoin:miter;stroke-opacity:1" />
      <path
         id="path5009"
         d="M 1233.9323,670.22722 C 1226.4323,667.37008 1225.718,667.72722 1223.9323,663.79865 C 1222.1466,659.87008 1220.0037,658.79865 1220.0037,654.87008 C 1220.0037,650.94151 1220.3609,642.01294 1224.6466,645.22722 C 1228.9323,648.44151 1227.1466,656.65579 1233.9323,653.44151 C 1240.718,650.22722 1238.218,648.08436 1241.7894,649.15579 C 1245.3609,650.22722 1250.0037,651.65579 1245.718,656.29865 C 1241.4323,660.94151 1238.9323,661.65579 1236.0752,659.87008 C 1233.218,658.08436 1230.718,654.87008 1231.4323,658.08436 C 1232.1466,661.29865 1235.3609,669.15579 1233.9323,670.22722 z"
         style="fill:none;fill-rule:evenodd;stroke:#000000;stroke-width:1px;stroke-linecap:butt;stroke-linejoin:miter;stroke-opacity:1" />
      <path
         id="path5011"
         d="M 1228.218,669.87008 L 1232.5037,683.79865 C 1232.5037,683.79865 1233.9323,700.58436 1229.6466,688.08436 C 1225.3609,675.58436 1228.9323,670.22722 1228.218,669.87008 z"
         style="fill:none;fill-rule:evenodd;stroke:#000000;stroke-width:1px;stroke-linecap:butt;stroke-linejoin:miter;stroke-opacity:1" />
      <path
         id="path5013"
         d="M 1216.0752,693.08436 C 1207.8609,688.08436 1203.218,684.51294 1207.5037,682.01294 C 1211.7894,679.51294 1224.6466,671.65579 1223.218,678.44151 C 1221.7894,685.22722 1220.3609,691.29865 1220.3609,691.29865 L 1216.0752,693.08436 z"
         style="fill:none;fill-rule:evenodd;stroke:#000000;stroke-width:1px;stroke-linecap:butt;stroke-linejoin:miter;stroke-opacity:1" />
      <path
         id="path5015"
         d="M 1242.8609,720.58437 C 1243.9323,725.22722 1240.3609,729.15579 1243.9323,730.58437 C 1247.5037,732.01294 1248.218,742.72722 1250.3609,734.51294 C 1252.5037,726.29865 1252.1466,719.15579 1249.2894,717.72722 C 1246.4323,716.29865 1245.3609,710.22722 1244.2894,716.65579 C 1243.218,723.08437 1242.8609,722.01294 1242.8609,720.58437 z"
         style="fill:none;fill-rule:evenodd;stroke:#000000;stroke-width:1px;stroke-linecap:butt;stroke-linejoin:miter;stroke-opacity:1" />
      <path
         id="path5017"
         d="M 1238.218,757.37008 C 1239.2894,763.08437 1241.4323,777.37008 1239.2894,775.94151 C 1237.1466,774.51294 1237.8609,772.01294 1229.2894,772.37008 C 1220.718,772.72722 1215.3609,771.29865 1215.3609,773.79865 C 1215.3609,776.29865 1210.0037,782.01294 1215.718,784.15579 C 1221.4323,786.29865 1228.9323,785.22722 1232.1466,785.94151 C 1235.3609,786.65579 1249.2894,790.94151 1249.2894,790.94151 C 1249.2894,790.94151 1255.718,789.51294 1251.7894,779.87008 C 1247.8609,770.22722 1246.0752,764.87008 1246.0752,761.65579 C 1246.0752,758.44151 1239.6466,754.15579 1239.6466,754.15579 L 1238.218,757.37008 z"
         style="fill:none;fill-rule:evenodd;stroke:#000000;stroke-width:1px;stroke-linecap:butt;stroke-linejoin:miter;stroke-opacity:1" />
      <path
         id="path5019"
         d="M 1257.1466,812.37008 C 1256.0752,803.44151 1261.4323,807.01294 1261.7894,808.79865 C 1262.1466,810.58437 1268.5752,820.22722 1264.2894,819.87008 C 1260.0037,819.51294 1256.4323,821.29865 1255.718,818.44151 C 1255.0037,815.58437 1253.9323,811.29865 1257.1466,812.37008 z"
         style="fill:none;fill-rule:evenodd;stroke:#000000;stroke-width:1px;stroke-linecap:butt;stroke-linejoin:miter;stroke-opacity:1" />
      <path
         id="path5021"
         d="M 1262.1466,787.72722 C 1265.3609,773.44151 1268.218,767.01294 1270.718,762.01294 C 1273.218,757.01294 1278.9323,755.22722 1275.0037,744.15579 C 1271.0752,733.08437 1269.6466,733.79865 1271.4323,727.37008 C 1273.218,720.94151 1263.5752,711.65579 1265.3609,708.44151 C 1267.1466,705.22722 1264.2894,696.65579 1267.5037,696.29865 C 1270.718,695.94151 1280.0037,703.08436 1282.5037,699.51294 C 1285.0037,695.94151 1285.0037,692.01294 1289.6466,689.15579 C 1294.2894,686.29865 1301.4323,678.08436 1304.2894,680.94151 C 1307.1466,683.79865 1309.6466,692.72722 1306.7894,697.37008 C 1303.9323,702.01294 1308.9323,704.51294 1298.218,706.65579 C 1287.5037,708.79865 1283.9323,704.51294 1283.9323,709.15579 C 1283.9323,713.79865 1288.218,718.08437 1293.218,720.22722 C 1298.218,722.37008 1306.0752,732.01294 1306.0752,732.01294 C 1306.0752,732.01294 1302.8609,739.87008 1293.9323,734.15579 C 1285.0037,728.44151 1280.718,715.58437 1284.2894,728.44151 C 1287.8609,741.29865 1290.718,744.15579 1293.5752,749.15579 C 1296.4323,754.15579 1305.0037,759.87008 1297.8609,760.94151 C 1290.718,762.01294 1290.0037,761.65579 1288.218,761.65579 C 1286.4323,761.65579 1280.3609,757.37008 1281.0752,763.08437 C 1281.7894,768.79865 1282.5037,776.65579 1281.7894,778.79865 C 1281.0752,780.94151 1276.7894,770.22722 1275.718,782.37008 C 1274.6466,794.51294 1279.6466,796.65579 1275.0037,799.15579 C 1270.3609,801.65579 1266.4323,799.51294 1266.4323,799.51294 L 1263.218,792.72722 L 1262.1466,787.72722 z"
         style="fill:none;fill-rule:evenodd;stroke:#000000;stroke-width:1px;stroke-linecap:butt;stroke-linejoin:miter;stroke-opacity:1" />
      <path
         id="path5023"
         d="M 1221.7894,629.51294 C 1223.9323,617.72722 1224.2894,616.29865 1228.9323,610.94151 C 1233.5752,605.58436 1237.8609,605.22722 1233.5752,603.08436 C 1229.2894,600.94151 1226.7894,594.87008 1221.4323,599.51294 C 1216.0752,604.15579 1219.2894,607.01294 1211.4323,604.51294 C 1203.5752,602.01294 1203.218,594.15579 1203.5752,603.08436 C 1203.9323,612.01294 1208.218,619.15579 1208.9323,620.58436 C 1209.6466,622.01294 1222.5037,654.51294 1220.3609,652.37008 C 1218.218,650.22722 1223.9323,638.44151 1223.218,635.22722 C 1222.5037,632.01294 1221.7894,628.79865 1221.7894,629.51294 z"
         style="fill:none;fill-rule:evenodd;stroke:#000000;stroke-width:1px;stroke-linecap:butt;stroke-linejoin:miter;stroke-opacity:1" />
      <path
         id="path5025"
         d="M 1276.7894,592.01294 C 1270.718,585.94151 1273.9323,594.87008 1269.2894,584.51294 C 1264.6466,574.15579 1258.9323,577.37008 1263.218,572.37008 C 1267.5037,567.37008 1267.5037,566.65579 1273.218,565.94151 C 1278.9323,565.22722 1287.5037,564.87008 1290.718,563.44151 C 1293.9323,562.01294 1300.3609,556.29865 1300.718,558.44151 C 1301.0752,560.58436 1298.218,566.65579 1298.218,566.65579 C 1298.218,566.65579 1298.5752,572.01294 1300.0037,575.22722 C 1301.4323,578.44151 1304.2894,583.79865 1301.0752,587.01294 C 1297.8609,590.22722 1298.5752,594.51294 1294.2894,587.37008 C 1290.0037,580.22722 1286.7894,581.29865 1291.0752,576.29865 C 1295.3609,571.29865 1296.0752,571.65579 1296.0752,570.22722 C 1296.0752,568.79865 1298.9323,560.94151 1293.5752,566.65579 C 1288.218,572.37008 1288.9323,575.58436 1286.7894,575.58436 C 1284.6466,575.58436 1286.4323,569.15579 1280.3609,573.08436 C 1274.2894,577.01294 1267.8609,574.87008 1272.1466,579.15579 C 1276.4323,583.44151 1280.3609,583.44151 1282.5037,584.87008 C 1284.6466,586.29865 1291.7894,592.37008 1286.0752,593.08436 C 1280.3609,593.79865 1276.7894,593.08436 1276.7894,592.01294 z"
         style="fill:none;fill-rule:evenodd;stroke:#000000;stroke-width:1px;stroke-linecap:butt;stroke-linejoin:miter;stroke-opacity:1" />
      <path
         id="path5027"
         d="M 1289.6466,627.01294 C 1299.2894,626.65579 1313.5752,619.15579 1308.5752,630.58436 C 1303.5752,642.01294 1300.3609,633.44151 1301.7894,639.51294 C 1303.218,645.58436 1305.3609,644.51294 1303.218,653.79865 C 1301.0752,663.08436 1302.8609,672.01294 1296.0752,664.87008 C 1289.2894,657.72722 1288.218,650.58436 1292.8609,648.08436 C 1297.5037,645.58436 1304.2894,647.37008 1298.218,643.44151 C 1292.1466,639.51294 1296.7894,643.79865 1288.218,639.15579 C 1279.6466,634.51294 1276.4323,637.01294 1276.4323,632.72722 C 1276.4323,628.44151 1277.1466,615.94151 1280.0037,621.65579 C 1282.8609,627.37008 1285.3609,640.22722 1289.6466,637.72722 C 1293.9323,635.22722 1297.1466,632.37008 1293.9323,631.65579 C 1290.718,630.94151 1289.2894,627.01294 1289.6466,627.01294 z"
         style="fill:none;fill-rule:evenodd;stroke:#000000;stroke-width:1px;stroke-linecap:butt;stroke-linejoin:miter;stroke-opacity:1" />
      <path
         id="path5029"
         d="M 1258.218,554.51294 C 1263.5752,558.08436 1274.6466,565.22722 1272.1466,558.79865 C 1269.6466,552.37008 1263.9323,557.01294 1266.4323,548.79865 C 1268.9323,540.58436 1273.5752,540.58436 1272.5037,537.01294 C 1271.4323,533.44151 1276.4323,532.01294 1266.0752,529.15579 C 1255.718,526.29865 1249.2894,524.51294 1249.2894,524.51294 C 1249.2894,524.51294 1243.9323,517.72722 1243.218,523.79865 C 1242.5037,529.87008 1242.5037,541.65579 1242.5037,545.22722 C 1242.5037,548.79865 1232.5037,559.51294 1243.218,558.08436 C 1253.9323,556.65579 1255.3609,555.94151 1255.3609,555.94151 L 1258.218,554.51294 z"
         style="fill:none;fill-rule:evenodd;stroke:#000000;stroke-width:1px;stroke-linecap:butt;stroke-linejoin:miter;stroke-opacity:1" />
      <path
         id="path5031"
         d="M 1269.2894,519.87008 C 1271.4323,523.08436 1283.5752,540.22722 1285.3609,535.22722 C 1287.1466,530.22722 1293.9323,524.51294 1293.9323,524.51294 C 1293.9323,524.51294 1287.8609,526.65579 1286.7894,517.37008 C 1285.718,508.08436 1289.6466,508.44151 1280.718,510.58436 C 1271.7894,512.72722 1265.718,517.01294 1269.2894,519.87008 z"
         style="fill:none;fill-rule:evenodd;stroke:#000000;stroke-width:1px;stroke-linecap:butt;stroke-linejoin:miter;stroke-opacity:1" />
      <path
         id="path5033"
         d="M 1248.9323,518.79865 C 1258.5752,518.79865 1269.6466,516.65579 1269.6466,513.44151 C 1269.6466,510.22722 1262.8609,509.87008 1268.5752,504.87008 C 1274.2894,499.87008 1273.218,498.44151 1276.7894,497.37008 C 1280.3609,496.29865 1281.0752,490.22722 1277.5037,490.94151 C 1273.9323,491.65579 1271.7894,489.51294 1267.8609,496.29865 C 1263.9323,503.08436 1263.9323,504.87008 1258.9323,506.65579 C 1253.9323,508.44151 1250.0037,509.15579 1249.2894,512.01294 C 1248.5752,514.87008 1249.6466,520.58436 1249.6466,520.58436 L 1248.9323,518.79865 z"
         style="fill:none;fill-rule:evenodd;stroke:#000000;stroke-width:1px;stroke-linecap:butt;stroke-linejoin:miter;stroke-opacity:1" />
      <path
         id="path6395"
         d="M 836.40631,433.13866 L 865.70073,442.73511 L 928.83526,432.63359 L 968.23121,450.31126 L 1016.7185,449.3011 L 1052.5789,429.60313 L 1066.216,427.07775 L 1077.3277,425.05744 L 1086.9241,414.45084 L 1064.1957,399.80363 C 1064.1957,399.80363 1053.084,406.36962 1048.5383,406.8747 C 1043.9926,407.37977 1024.2946,404.34932 1024.2946,404.34932 L 1025.8099,424.55237 L 1014.1931,435.66404 L 1001.5662,437.68435 L 982.87842,440.20973 L 968.23121,440.71481 L 964.69568,439.70465 L 952.57385,435.15897 L 940.95709,427.07775 L 940.45202,408.895 L 920.75404,408.895 L 924.79465,420.00668 L 908.12714,430.10821 L 866.71088,434.14882 C 866.71088,434.14882 848.02306,430.10821 843.98245,428.0879 C 839.94184,426.06759 834.386,421.01683 834.386,421.01683 L 836.40631,433.13866 z"
         style="fill:none;fill-rule:evenodd;stroke:#000000;stroke-width:1px;stroke-linecap:butt;stroke-linejoin:miter;stroke-opacity:1" />
      <path
         id="path6415"
         d="M 1150.7028,648.54239 C 1151.7742,644.61382 1149.6313,640.68525 1153.5599,639.97096 C 1157.4885,639.25668 1157.8456,648.18525 1157.8456,648.18525 L 1156.417,653.89954 L 1150.7028,648.54239 z"
         style="fill:none;fill-opacity:1;fill-rule:evenodd;stroke:#080808;stroke-width:1px;stroke-linecap:butt;stroke-linejoin:miter;stroke-opacity:1" />
      <path
         id="path6417"
         d="M 1172.4885,643.54239 C 1172.4885,643.54239 1172.4885,636.39954 1174.2742,636.39954 C 1176.0599,636.39954 1180.7028,640.32811 1180.7028,640.32811 L 1179.6313,646.75668 L 1172.4885,643.54239 z"
         style="fill:none;fill-opacity:1;fill-rule:evenodd;stroke:#080808;stroke-width:1px;stroke-linecap:butt;stroke-linejoin:miter;stroke-opacity:1" />
      <path
         id="path6419"
         d="M 1191.7742,658.54239 L 1193.917,650.68525 C 1193.917,650.68525 1200.7028,655.68525 1199.6313,657.11382 C 1198.5599,658.54239 1194.6313,662.11382 1194.6313,662.11382 L 1193.5599,658.89954 L 1191.7742,658.54239 z"
         style="fill:none;fill-opacity:1;fill-rule:evenodd;stroke:#080808;stroke-width:1px;stroke-linecap:butt;stroke-linejoin:miter;stroke-opacity:1" />
      <path
         id="path6421"
         d="M 1176.417,624.97096 C 1173.917,623.18525 1168.917,619.97096 1169.6313,618.54239 C 1170.3456,617.11382 1175.7028,611.75668 1171.417,610.32811 C 1167.1313,608.89954 1166.417,608.54239 1163.5599,607.47096 C 1160.7028,606.39954 1159.2742,604.97096 1159.2742,604.97096 L 1160.3456,598.54239 L 1170.7028,601.04239 C 1170.7028,601.04239 1176.0599,602.47096 1177.1313,605.32811 C 1178.2028,608.18525 1179.2742,610.68525 1178.917,614.25668 C 1178.5599,617.82811 1177.8456,618.54239 1178.2028,621.39954 C 1178.5599,624.25668 1177.4885,626.75668 1177.4885,626.75668 L 1176.417,624.97096 z"
         style="fill:none;fill-opacity:1;fill-rule:evenodd;stroke:#080808;stroke-width:1px;stroke-linecap:butt;stroke-linejoin:miter;stroke-opacity:1" />
      <path
         id="path6423"
         d="M 1186.0599,633.54239 C 1184.9885,631.04239 1184.6313,629.97096 1184.6313,625.68525 C 1184.6313,621.39954 1182.1313,614.97096 1184.2742,614.61382 C 1186.417,614.25668 1192.1313,615.32811 1192.1313,615.32811 L 1189.2742,628.89954 L 1192.8456,634.25668 C 1192.8456,634.25668 1191.7742,638.54239 1189.6313,636.75668 C 1187.4885,634.97096 1186.7742,634.25668 1186.0599,633.54239 z"
         style="fill:none;fill-opacity:1;fill-rule:evenodd;stroke:#080808;stroke-width:1px;stroke-linecap:butt;stroke-linejoin:miter;stroke-opacity:1" />
      <path
         id="path6425"
         d="M 1129.2742,657.47096 C 1135.3456,655.32811 1137.1313,656.04239 1137.1313,650.68525 C 1137.1313,645.32811 1136.417,642.11382 1134.9885,640.68525 C 1133.5599,639.25668 1131.0599,636.75668 1129.6313,639.61382 C 1128.2028,642.47096 1126.417,648.89954 1126.417,648.89954 C 1126.417,648.89954 1126.0599,657.82811 1127.4885,657.82811 C 1128.917,657.82811 1130.3456,658.89954 1129.2742,657.47096 z"
         style="fill:none;fill-opacity:1;fill-rule:evenodd;stroke:#080808;stroke-width:1px;stroke-linecap:butt;stroke-linejoin:miter;stroke-opacity:1" />
      <path
         id="path6427"
         d="M 1115.7028,643.18525 C 1115.7028,643.18525 1117.8456,640.68525 1117.8456,636.39954 C 1117.8456,632.11382 1117.4885,627.47096 1118.917,624.61382 C 1120.3456,621.75668 1124.6313,620.68525 1124.9885,623.18525 C 1125.3456,625.68525 1125.7028,631.39954 1124.9885,634.25668 C 1124.2742,637.11382 1121.417,645.32811 1121.417,645.32811 L 1115.7028,643.18525 z"
         style="fill:none;fill-opacity:1;fill-rule:evenodd;stroke:#080808;stroke-width:1px;stroke-linecap:butt;stroke-linejoin:miter;stroke-opacity:1" />
      <path
         id="path6429"
         d="M 1105.7028,655.68525 C 1104.2742,656.04239 1103.2028,657.11382 1100.3456,656.39954 C 1097.4885,655.68525 1096.7742,655.32811 1097.1313,651.39954 C 1097.4885,647.47096 1097.8456,644.61382 1096.417,643.54239 C 1094.9885,642.47096 1092.1313,637.47096 1091.7742,641.04239 C 1091.417,644.61382 1094.2742,649.97096 1091.417,647.47096 C 1088.5599,644.97096 1088.5599,644.97096 1088.917,642.47096 C 1089.2742,639.97096 1088.917,636.75668 1092.8456,635.32811 C 1096.7742,633.89954 1103.5599,633.18525 1105.3456,634.61382 C 1107.1313,636.04239 1111.0599,632.11382 1109.2742,639.97096 C 1107.4885,647.82811 1111.0599,645.32811 1107.1313,648.54239 C 1103.2028,651.75668 1101.417,652.82811 1103.2028,654.61382 C 1104.9885,656.39954 1107.1313,658.54239 1107.1313,658.54239 L 1105.7028,655.68525 z"
         style="fill:none;fill-opacity:1;fill-rule:evenodd;stroke:#080808;stroke-width:1px;stroke-linecap:butt;stroke-linejoin:miter;stroke-opacity:1" />
      <path
         id="path6431"
         d="M 1120.3456,675.32811 C 1112.8456,670.32811 1112.1313,666.39954 1114.9885,666.39954 C 1117.8456,666.39954 1117.1313,666.39954 1126.417,670.32811 C 1135.7028,674.25668 1132.8456,673.18525 1137.4885,676.04239 C 1142.1313,678.89954 1140.3456,683.89954 1138.5599,684.25668 C 1136.7742,684.61382 1129.9885,679.97096 1127.8456,679.97096 C 1125.7028,679.97096 1120.3456,676.04239 1120.3456,675.32811 z"
         style="fill:none;fill-opacity:1;fill-rule:evenodd;stroke:#080808;stroke-width:1px;stroke-linecap:butt;stroke-linejoin:miter;stroke-opacity:1" />
      <path
         id="path6433"
         d="M 1162.4885,684.61382 C 1161.7742,677.82811 1159.2742,678.54239 1163.2028,675.68525 C 1167.1313,672.82811 1166.0599,667.47096 1171.417,671.39954 C 1176.7742,675.32811 1179.6313,672.47096 1176.7742,676.39954 C 1173.917,680.32811 1174.9885,679.97096 1171.0599,679.25668 C 1167.1313,678.54239 1160.7028,679.25668 1163.917,681.39954 C 1167.1313,683.54239 1168.2028,686.75668 1171.417,685.68525 C 1174.6313,684.61382 1171.0599,684.25668 1175.3456,684.25668 C 1179.6313,684.25668 1184.6313,686.39954 1182.4885,687.47096 C 1180.3456,688.54239 1177.8456,691.39954 1175.3456,690.68525 C 1172.8456,689.97096 1167.4885,689.61382 1165.7028,688.89954 C 1163.917,688.18525 1162.1313,685.32811 1162.4885,684.61382 z"
         style="fill:none;fill-opacity:1;fill-rule:evenodd;stroke:#080808;stroke-width:1px;stroke-linecap:butt;stroke-linejoin:miter;stroke-opacity:1" />
      <path
         id="path6435"
         d="M 1186.0599,684.97096 C 1186.0599,677.82811 1188.2028,674.25668 1187.8456,672.11382 C 1187.4885,669.97096 1186.417,667.11382 1186.417,667.11382 C 1186.417,667.11382 1192.4885,665.68525 1193.917,667.82811 C 1195.3456,669.97096 1195.7028,675.68525 1196.0599,677.11382 C 1196.417,678.54239 1197.4885,679.97096 1195.3456,682.11382 C 1193.2028,684.25668 1190.7028,687.11382 1188.917,686.39954 C 1187.1313,685.68525 1185.7028,684.25668 1186.0599,684.97096 z"
         style="fill:none;fill-opacity:1;fill-rule:evenodd;stroke:#080808;stroke-width:1px;stroke-linecap:butt;stroke-linejoin:miter;stroke-opacity:1" />
      <path
         id="path6437"
         d="M 1200.7028,679.97096 C 1199.6313,676.39954 1197.1313,674.25668 1197.8456,672.11382 C 1198.5599,669.97096 1201.7742,666.04239 1201.7742,666.04239 L 1202.1313,674.25668 L 1206.0599,677.11382 L 1200.7028,679.97096 z"
         style="fill:none;fill-opacity:1;fill-rule:evenodd;stroke:#080808;stroke-width:1px;stroke-linecap:butt;stroke-linejoin:miter;stroke-opacity:1" />
      <path
         id="path6439"
         d="M 1097.4885,623.54239 C 1097.1313,619.61382 1097.1313,619.61382 1098.2028,616.75668 C 1099.2742,613.89954 1103.5599,604.61382 1103.917,612.11382 C 1104.2742,619.61382 1107.4885,619.97096 1104.2742,622.47096 C 1101.0599,624.97096 1099.6313,623.89954 1099.6313,623.89954 L 1097.4885,623.54239 z"
         style="fill:none;fill-opacity:1;fill-rule:evenodd;stroke:#080808;stroke-width:1px;stroke-linecap:butt;stroke-linejoin:miter;stroke-opacity:1" />
      <path
         id="path6441"
         d="M 1088.917,611.04239 C 1088.5599,608.89954 1086.0599,604.97096 1083.917,603.54239 C 1081.7742,602.11382 1077.1313,598.54239 1077.1313,598.54239 C 1077.1313,598.54239 1070.7028,592.47096 1074.9885,592.47096 C 1079.2742,592.47096 1086.0599,595.68525 1086.0599,595.68525 C 1086.0599,595.68525 1088.5599,589.97096 1085.7028,589.97096 C 1082.8456,589.97096 1082.1313,586.75668 1080.7028,586.75668 C 1079.2742,586.75668 1078.2028,583.89954 1081.7742,584.25668 C 1085.3456,584.61382 1084.9885,578.18525 1087.8456,586.39954 C 1090.7028,594.61382 1091.0599,599.25668 1091.0599,600.68525 C 1091.0599,602.11382 1097.8456,605.32811 1096.417,607.82811 C 1094.9885,610.32811 1089.2742,611.75668 1088.917,611.04239 z"
         style="fill:none;fill-opacity:1;fill-rule:evenodd;stroke:#080808;stroke-width:1px;stroke-linecap:butt;stroke-linejoin:miter;stroke-opacity:1" />
      <path
         id="path6443"
         d="M 1094.9885,789.25668 C 1096.7742,788.18525 1103.917,786.39954 1106.7742,783.54239 C 1109.6313,780.68525 1114.9885,772.82811 1114.9885,772.82811 L 1123.917,772.82811 C 1123.917,772.82811 1121.0599,777.82811 1117.1313,781.39954 C 1113.2028,784.97097 1106.0599,788.89954 1105.3456,791.04239 C 1104.6313,793.18525 1108.5599,803.54239 1108.5599,803.54239 C 1108.5599,803.54239 1111.7742,815.68525 1112.1313,818.89954 C 1112.4885,822.11382 1122.1313,822.47097 1121.417,817.47097 C 1120.7028,812.47097 1122.4885,801.75668 1123.2028,797.82811 C 1123.917,793.89954 1126.0599,786.75668 1127.8456,785.68525 C 1129.6313,784.61382 1131.7742,782.47097 1133.5599,783.54239 C 1135.3456,784.61382 1128.917,791.04239 1129.9885,796.75668 C 1131.0599,802.47097 1127.1313,809.25668 1128.5599,812.47097 C 1129.9885,815.68525 1130.3456,821.39954 1132.8456,821.39954 C 1135.3456,821.39954 1137.1313,819.25668 1142.8456,817.47097 C 1148.5599,815.68525 1148.2028,815.32811 1151.7742,813.54239 C 1155.3456,811.75668 1164.9885,806.04239 1164.9885,806.04239 C 1164.9885,806.04239 1170.3456,798.89954 1169.6313,806.75668 C 1168.917,814.61382 1169.6313,814.97097 1168.917,818.18525 C 1168.2028,821.39954 1165.7028,828.18525 1167.1313,829.97097 C 1168.5599,831.75668 1167.8456,833.18525 1174.6313,833.89954 C 1181.417,834.61382 1186.0599,839.97097 1192.1313,839.97097 C 1198.2028,839.97097 1200.3456,841.75668 1200.3456,841.75668 L 1207.1313,844.25668 C 1207.1313,844.25668 1212.8456,848.18525 1213.2028,850.68525 C 1213.5599,853.18525 1213.2028,855.32811 1212.8456,857.82811 C 1212.4885,860.32811 1219.9885,866.04239 1206.417,862.11382 C 1192.8456,858.18525 1185.3456,855.32811 1178.917,852.82811 C 1172.4885,850.32811 1168.2028,848.54239 1160.7028,844.61382 C 1153.2028,840.68525 1152.1313,837.47097 1144.6313,836.04239 C 1137.1313,834.61382 1142.4885,835.32811 1131.417,833.54239 C 1120.3456,831.75668 1119.6313,831.39954 1114.6313,830.68525 C 1109.6313,829.97097 1107.8456,828.89954 1103.917,827.47097 C 1099.9885,826.04239 1089.2742,820.68525 1086.0599,819.97097 C 1082.8456,819.25668 1076.0599,816.04239 1076.0599,816.04239 L 1095.3456,813.18525 L 1094.9885,789.25668 z"
         style="fill:none;fill-rule:evenodd;stroke:#080808;stroke-width:1px;stroke-linecap:butt;stroke-linejoin:miter;stroke-opacity:1" />
      <path
         id="path6445"
         d="M 1221.0599,812.47097 C 1221.0599,812.47097 1223.5599,818.54239 1222.8456,820.32811 C 1222.1313,822.11382 1221.417,821.04239 1221.417,824.97097 C 1221.417,828.89954 1217.4885,831.39954 1221.0599,832.11382 C 1224.6313,832.82811 1231.7742,834.97097 1229.9885,831.75668 C 1228.2028,828.54239 1228.917,826.39954 1228.2028,823.54239 C 1227.4885,820.68525 1226.7742,814.97097 1227.4885,813.54239 C 1228.2028,812.11382 1227.1313,809.97097 1227.1313,809.97097 L 1221.0599,812.47097 z"
         style="fill:none;fill-rule:evenodd;stroke:#080808;stroke-width:1px;stroke-linecap:butt;stroke-linejoin:miter;stroke-opacity:1" />
      <path
         id="path6447"
         d="M 1179.2742,798.18525 C 1179.2742,798.18525 1179.6313,807.11382 1178.917,808.54239 C 1178.2028,809.97097 1178.917,818.18525 1178.917,818.18525 C 1178.917,818.18525 1176.0599,826.04239 1175.7028,827.82811 C 1175.3456,829.61382 1179.2742,836.39954 1179.2742,830.32811 C 1179.2742,824.25668 1177.8456,818.54239 1181.7742,819.61382 C 1185.7028,820.68525 1185.7028,820.32811 1186.0599,823.54239 C 1186.417,826.75668 1192.8456,833.18525 1190.7028,830.68525 C 1188.5599,828.18525 1190.3456,822.47097 1189.6313,819.25668 C 1188.917,816.04239 1187.4885,815.68525 1186.7742,812.11382 C 1186.0599,808.54239 1185.3456,796.39954 1185.3456,796.39954 L 1179.2742,798.18525 z"
         style="fill:none;fill-rule:evenodd;stroke:#080808;stroke-width:1px;stroke-linecap:butt;stroke-linejoin:miter;stroke-opacity:1" />
      <path
         id="path6449"
         d="M 1178.2028,787.11382 C 1179.2742,784.61382 1182.4885,780.32811 1183.917,777.82811 C 1185.3456,775.32811 1185.3456,773.89954 1186.417,771.39954 C 1187.4885,768.89954 1188.917,764.61382 1188.917,764.61382 C 1188.917,764.61382 1189.9885,756.75668 1189.9885,758.89954 C 1189.9885,761.04239 1192.1313,774.25668 1192.1313,774.25668 C 1192.1313,774.25668 1195.7028,773.18525 1192.4885,778.54239 C 1189.2742,783.89954 1183.2028,786.39954 1183.2028,786.39954 L 1178.2028,787.11382 z"
         style="fill:none;fill-rule:evenodd;stroke:#080808;stroke-width:1px;stroke-linecap:butt;stroke-linejoin:miter;stroke-opacity:1" />
      <path
         id="path6451"
         d="M 1140.7028,736.39954 C 1138.5599,741.39954 1140.7028,745.68525 1137.1313,749.61382 C 1133.5599,753.54239 1134.6313,756.75668 1130.3456,757.47097 C 1126.0599,758.18525 1121.7742,763.54239 1122.4885,756.75668 C 1123.2028,749.97097 1128.2028,751.75668 1123.2028,748.89954 C 1118.2028,746.04239 1112.8456,746.39954 1114.9885,743.54239 C 1117.1313,740.68525 1124.9885,733.89954 1124.9885,733.89954 C 1124.9885,733.89954 1124.9885,730.68525 1125.7028,726.75668 C 1126.417,722.82811 1128.917,718.89954 1131.0599,718.18525 C 1133.2028,717.47097 1134.9885,716.04239 1135.3456,712.47097 C 1135.7028,708.89954 1135.7028,707.82811 1135.7028,706.39954 C 1135.7028,704.97096 1137.4885,701.39954 1140.7028,700.68525 C 1143.917,699.97096 1142.1313,701.39954 1149.2742,701.39954 C 1156.417,701.39954 1161.0599,698.89954 1159.6313,702.47096 C 1158.2028,706.04239 1156.417,707.82811 1153.917,708.89954 C 1151.417,709.97096 1155.3456,706.04239 1150.7028,709.97096 C 1146.0599,713.89954 1137.8456,714.25668 1146.417,714.61382 C 1154.9885,714.97097 1151.417,718.89954 1155.3456,712.82811 C 1159.2742,706.75668 1161.7742,706.39954 1163.5599,706.04239 C 1165.3456,705.68525 1168.917,706.04239 1170.7028,706.39954 C 1172.4885,706.75668 1177.4885,706.04239 1169.6313,712.11382 C 1161.7742,718.18525 1157.1313,721.04239 1159.2742,723.54239 C 1161.417,726.04239 1164.6313,722.11382 1161.417,730.32811 C 1158.2028,738.54239 1157.4885,739.97097 1154.9885,742.11382 C 1152.4885,744.25668 1153.2028,746.39954 1148.917,748.89954 C 1144.6313,751.39954 1143.2028,751.39954 1143.2028,751.39954 C 1143.2028,751.39954 1141.417,750.68525 1142.8456,746.75668 C 1144.2742,742.82811 1144.6313,738.18525 1144.6313,738.18525 L 1140.7028,736.39954 z"
         style="fill:none;fill-rule:evenodd;stroke:#080808;stroke-width:1px;stroke-linecap:butt;stroke-linejoin:miter;stroke-opacity:1" />
      <path
         id="path6453"
         d="M 1177.8456,717.11382 C 1180.3456,713.89954 1178.2028,712.82811 1180.3456,711.04239 C 1182.4885,709.25668 1179.9885,710.68525 1184.6313,709.61382 C 1189.2742,708.54239 1191.417,711.04239 1190.3456,708.54239 C 1189.2742,706.04239 1191.0599,703.54239 1185.7028,702.82811 C 1180.3456,702.11382 1179.2742,700.68525 1176.7742,701.04239 C 1174.2742,701.39954 1173.5599,705.32811 1173.5599,705.32811 C 1173.5599,705.32811 1173.5599,711.39954 1173.5599,713.54239 C 1173.5599,715.68525 1171.417,718.54239 1173.2028,719.25668 C 1174.9885,719.97097 1178.917,718.18525 1177.8456,717.11382 z"
         style="fill:none;fill-rule:evenodd;stroke:#080808;stroke-width:1px;stroke-linecap:butt;stroke-linejoin:miter;stroke-opacity:1" />
      <path
         id="path6455"
         d="M 1131.0599,687.11382 C 1131.0599,688.89954 1129.2742,689.61382 1131.0599,691.39954 C 1132.8456,693.18525 1133.5599,695.68525 1133.917,697.11382 C 1134.2742,698.54239 1131.417,700.68525 1134.6313,700.32811 C 1137.8456,699.97096 1136.0599,698.18525 1139.6313,696.75668 C 1143.2028,695.32811 1145.3456,695.32811 1147.4885,695.68525 C 1149.6313,696.04239 1153.917,692.11382 1153.917,692.11382 C 1153.917,692.11382 1154.2742,688.54239 1148.2028,688.54239 C 1142.1313,688.54239 1140.7028,688.89954 1138.2028,688.18525 C 1135.7028,687.47096 1131.417,686.04239 1131.0599,687.11382 z"
         style="fill:none;fill-rule:evenodd;stroke:#080808;stroke-width:1px;stroke-linecap:butt;stroke-linejoin:miter;stroke-opacity:1" />
      <path
         id="path2725"
         d="M 1175.565,287.42417 L 1160.4127,282.87849 L 1160.9178,217.21857 L 1160.9178,197.01552 L 1155.362,202.06628 L 1148.796,286.41402 L 1173.0397,295.50539 L 1175.565,287.42417 z"
         style="fill:none;fill-rule:evenodd;stroke:#000000;stroke-width:1px;stroke-linecap:butt;stroke-linejoin:miter;stroke-opacity:1" />
    </g>
    <path
       style="fill:none;fill-rule:evenodd;stroke:#000000;stroke-width:1px;stroke-linecap:butt;stroke-linejoin:miter;stroke-opacity:1"
       d="M 49.497475,410.90425 C 49.497475,410.90425 51.51778,295.74686 57.073619,294.73671 C 62.629458,293.72656 91.418805,407.36872 91.418805,407.36872"
       id="path7323"
       transform="translate(28.903968,2.9235941)" />
    <path
       style="fill:none;fill-rule:evenodd;stroke:#000000;stroke-width:1px;stroke-linecap:butt;stroke-linejoin:miter;stroke-opacity:1"
       d="M 153.03811,323.52606 C 153.03811,323.52606 160.10918,202.30775 167.68532,201.2976 C 175.26147,200.28745 193.44421,317.46514 193.44421,317.46514"
       id="path7325"
       transform="translate(28.903968,2.9235941)" />
    <path
       style="fill:none;fill-rule:evenodd;stroke:#000000;stroke-width:1px;stroke-linecap:butt;stroke-linejoin:miter;stroke-opacity:1"
       d="M 268.70058,152.3052 C 268.70058,152.3052 285.87317,15.934608 290.92393,13.914303 C 295.9747,11.893998 325.7742,157.86104 325.7742,157.86104"
       id="path7327"
       transform="translate(28.903968,2.9235941)" />
    <path
       style="fill:none;fill-rule:evenodd;stroke:#000000;stroke-width:1px;stroke-linecap:butt;stroke-linejoin:miter;stroke-opacity:1"
       d="M 379.81736,277.56412 C 379.81736,277.56412 399.51533,165.94226 404.06102,165.94226 C 408.6067,165.94226 424.26407,276.04889 424.26407,276.04889"
       id="path7329"
       transform="translate(28.903968,2.9235941)" />
  </g>
</svg>
